<svg width="1600" height="900" viewBox="0 0 1600 900" fill="none" xmlns="http://www.w3.org/2000/svg">
  <defs>
    <linearGradient id="bg2" x1="0" y1="0" x2="1600" y2="900" gradientUnits="userSpaceOnUse">
      <stop stop-color="#EEF1F7"/>
      <stop offset="0.4" stop-color="#8FE1EB"/>
      <stop offset="1" stop-color="#0B4262"/>
    </linearGradient>
    <linearGradient id="bars" x1="0" y1="1" x2="1" y2="0">
      <stop stop-color="#DDF7FF" stop-opacity="0.1"/>
      <stop offset="1" stop-color="#FFFFFF" stop-opacity="0.55"/>
    </linearGradient>
  </defs>
  <rect width="1600" height="900" fill="url(#bg2)"/>
  <g opacity="0.15" fill="#FFFFFF">
    <rect x="80" y="680" width="80" height="220"/>
    <rect x="200" y="590" width="90" height="310"/>
    <rect x="330" y="520" width="100" height="380"/>
    <rect x="470" y="450" width="85" height="450"/>
    <rect x="610" y="600" width="88" height="300"/>
    <rect x="735" y="395" width="110" height="505"/>
    <rect x="885" y="555" width="96" height="345"/>
    <rect x="1030" y="505" width="90" height="395"/>
    <rect x="1160" y="350" width="95" height="550"/>
    <rect x="1315" y="430" width="100" height="470"/>
  </g>
  <path d="M0 680C180 650 280 760 410 650C540 540 620 320 760 330C900 340 980 620 1140 585C1300 550 1400 350 1600 420V900H0V680Z" fill="#072C49" fill-opacity="0.45"/>
  <path d="M70 715C210 690 330 795 470 635C610 475 710 365 860 408C1010 451 1110 676 1260 600C1410 524 1490 390 1560 360" stroke="#42FF9F" stroke-width="6" stroke-linecap="round"/>
  <text x="800" y="120" text-anchor="middle" font-family="Arial, sans-serif" font-size="82" font-weight="700" letter-spacing="12" fill="#1D20B5">POINTAGE INTELLIGENT</text>
  <g>
    <rect x="80" y="260" width="420" height="360" rx="28" fill="#185D7C" fill-opacity="0.3"/>
    <text x="150" y="390" font-family="Arial, sans-serif" font-size="60" font-weight="700" letter-spacing="4" fill="#FFFFFF">BUREAUX</text>
    <text x="150" y="500" font-family="Arial, sans-serif" font-size="60" font-weight="700" letter-spacing="4" fill="#FFFFFF">ECOLES</text>
    <text x="150" y="610" font-family="Arial, sans-serif" font-size="60" font-weight="700" letter-spacing="4" fill="#FFFFFF">USINES</text>
    <text x="150" y="720" font-family="Arial, sans-serif" font-size="60" font-weight="700" letter-spacing="4" fill="#FFFFFF">MAGASINS</text>
  </g>
  <g>
    <rect x="640" y="300" width="190" height="340" rx="24" fill="#202833"/>
    <rect x="672" y="360" width="126" height="138" rx="14" fill="#101826" stroke="#444D5D"/>
    <circle cx="735" cy="430" r="38" fill="#1E2740"/>
    <circle cx="735" cy="430" r="16" fill="#536DFF" fill-opacity="0.7"/>
    <rect x="688" y="552" width="95" height="52" rx="10" fill="#0D1420" stroke="#6E7D95"/>

    <rect x="890" y="260" width="160" height="410" rx="22" fill="#2E3542"/>
    <rect x="925" y="300" width="90" height="64" rx="10" fill="#DDE1E8"/>
    <g fill="#111724">
      <circle cx="940" cy="405" r="10"/><circle cx="977" cy="405" r="10"/><circle cx="1014" cy="405" r="10"/>
      <circle cx="940" cy="442" r="10"/><circle cx="977" cy="442" r="10"/><circle cx="1014" cy="442" r="10"/>
      <circle cx="940" cy="479" r="10"/><circle cx="977" cy="479" r="10"/><circle cx="1014" cy="479" r="10"/>
      <circle cx="940" cy="516" r="10"/><circle cx="977" cy="516" r="10"/><circle cx="1014" cy="516" r="10"/>
    </g>
    <rect x="935" y="560" width="70" height="82" rx="12" fill="#0D131D" stroke="#F94646" stroke-width="6"/>
  </g>
  <g>
    <circle cx="1470" cy="120" r="130" fill="#FFFFFF" fill-opacity="0.92"/>
    <path d="M1390 120L1485 54L1560 132L1430 148Z" fill="#A4D39A"/>
    <text x="1470" y="160" text-anchor="middle" font-family="Arial, sans-serif" font-size="40" fill="#92C39A">SECUNOLOGIE</text>
  </g>
  <g>
    <circle cx="1338" cy="472" r="96" fill="#D98E3E" fill-opacity="0.14"/>
    <circle cx="1354" cy="456" r="82" fill="#F0D1AF"/>
    <circle cx="1354" cy="410" r="38" fill="#462F29"/>
    <rect x="1288" y="446" width="134" height="180" rx="48" fill="#1C1E27"/>
    <rect x="1322" y="470" width="62" height="120" rx="18" fill="#FFCC32"/>
    <path d="M1420 470L1490 430L1514 470L1452 518Z" fill="#1C1E27"/>
    <rect x="1436" y="470" width="58" height="120" rx="28" transform="rotate(-25 1436 470)" fill="#F2D2B5"/>
    <rect x="1437" y="510" width="58" height="25" rx="12" transform="rotate(-25 1437 510)" fill="#FFFFFF"/>
  </g>
  <g>
    <rect x="650" y="720" width="410" height="86" rx="22" fill="#B4EA57" fill-opacity="0.92"/>
    <text x="855" y="777" text-anchor="middle" font-family="Arial, sans-serif" font-size="52" letter-spacing="8" fill="#2B2E8A">A PARTIR DE</text>
    <rect x="660" y="815" width="430" height="70" rx="18" fill="#FFFFFF" fill-opacity="0.95"/>
    <text x="875" y="865" text-anchor="middle" font-family="Arial, sans-serif" font-size="58" letter-spacing="6" fill="#E14747">150 000 FCFA</text>
  </g>
</svg>
