<svg width="512" height="512" viewBox="0 0 512 512" fill="none" xmlns="http://www.w3.org/2000/svg">
  <defs>
    <linearGradient id="brandGreen" x1="28" y1="28" x2="484" y2="484" gradientUnits="userSpaceOnUse">
      <stop stop-color="#2F7E57" />
      <stop offset="1" stop-color="#3A8F61" />
    </linearGradient>
  </defs>

  <rect width="512" height="512" rx="256" fill="url(#brandGreen)" />
  <circle cx="210" cy="256" r="286" fill="#F5F5F5" />

  <g fill="#2F7E57">
    <path d="M36 262L170 154H336L200 262H36Z" />
    <path d="M336 154L430 236C434 240 434 246 430 250C426 254 420 254 416 250L322 164L336 154Z" />
    <rect x="166" y="262" width="10" height="154" rx="5" />

    <path d="M188 258L260 284L248 320L220 312L206 324C204 326 201 327 198 327H170V316H194L205 304L198 292C196 288 198 283 202 281L188 275L188 258Z" />
    <path d="M206 248L286 276C292 278 295 284 293 290L283 323C281 329 275 333 269 331L189 303C183 301 180 295 182 289L192 256C194 250 200 246 206 248Z" />
    <path d="M205 254L278 280L271 301L230 287L215 296L177 281L186 259L205 254Z" fill="#F5F5F5" />
    <rect x="286" y="309" width="8" height="33" transform="rotate(17 286 309)" />

    <rect x="274" y="216" width="38" height="38" rx="2" />
    <rect x="322" y="216" width="38" height="38" rx="2" />
    <rect x="274" y="264" width="38" height="38" rx="2" />
    <rect x="322" y="264" width="38" height="38" rx="2" />
  </g>

  <text x="172" y="386" text-anchor="middle" font-family="Poppins, Arial, sans-serif" font-size="40" font-weight="600" fill="#2F7E57" letter-spacing="1">SECUNOLOGIE</text>
  <text x="208" y="430" text-anchor="middle" font-family="Poppins, Arial, sans-serif" font-size="32" font-weight="600" fill="#2F7E57">Côte d’Ivoire</text>
</svg>
