<svg width="1024" height="1024" viewBox="0 0 1024 1024" fill="none" xmlns="http://www.w3.org/2000/svg">
  <rect width="1024" height="1024" fill="#F5F6F5"/>
  <path d="M1024 520V1024H680C800 900 920 760 1024 520Z" fill="#2F8057"/>
  <circle cx="300" cy="380" r="730" fill="#F5F6F5"/>

  <g fill="#2F8057">
    <path d="M56 526L305 306H560L276 526H56Z"/>
    <path d="M560 306L704 450L694 456L552 319L560 306Z"/>
    <rect x="256" y="526" width="16" height="194" rx="8"/>
    <rect x="262" y="716" width="8" height="140" rx="4"/>

    <rect x="501" y="428" width="60" height="60"/>
    <rect x="579" y="428" width="60" height="60"/>
    <rect x="501" y="505" width="60" height="60"/>
    <rect x="579" y="505" width="60" height="60"/>

    <path d="M307 502L404 538L458 508L496 522L486 560L468 554L474 533L456 525L406 557L297 518L307 502Z"/>
    <path d="M298 549H315L332 541L352 549L344 570L319 585H298V549Z"/>
    <rect x="287" y="545" width="19" height="42" rx="2"/>
  </g>

  <text x="278" y="700" font-family="Poppins, 'Helvetica Neue', Arial, sans-serif" font-size="80" font-weight="600" fill="#2F8057">SECUNOLOGIE</text>
  <text x="360" y="790" font-family="Poppins, 'Helvetica Neue', Arial, sans-serif" font-size="70" font-weight="600" fill="#2F8057">Côte d’Ivoire</text>
</svg>
