<svg width="200" height="200" viewBox="0 0 200 200" fill="none" xmlns="http://www.w3.org/2000/svg">
  <rect width="200" height="200" rx="100" fill="#8EC4A7" />
  <circle cx="80" cy="100" r="120" fill="#FFFFFF" />
  <g fill="#8EC4A7">
    <path d="M40 108L100 62L160 108H148V148H52V108H40Z" />
    <rect x="116" y="118" width="20" height="24" rx="3" />
    <path d="M58 122C58 117.582 61.582 114 66 114H101C105.418 114 109 117.582 109 122V131H118V143H66C61.582 143 58 139.418 58 135V122Z" />
    <circle cx="89" cy="129" r="7" fill="#FFFFFF" />
    <circle cx="89" cy="129" r="3.5" />
    <rect x="130" y="124" width="18" height="8" rx="3" />
    <rect x="130" y="132" width="8" height="12" rx="3" />
    <rect x="138" y="138" width="10" height="6" rx="2" />
    <rect x="64" y="118" width="10" height="14" rx="2" />
  </g>
  <text x="34" y="180" font-family="'Poppins', 'Helvetica Neue', Arial, sans-serif" font-size="20" font-weight="600" fill="#8EC4A7">SECUNOLOGIE</text>
  <text x="60" y="195" font-family="'Poppins', 'Helvetica Neue', Arial, sans-serif" font-size="12" fill="#8EC4A7">Côte d'Ivoire</text>
</svg>
